<svg width="120" height="120" viewBox="0 0 120 120" fill="none" xmlns="http://www.w3.org/2000/svg">
<path d="M35.0004 80C30.0754 80.0055 25.3216 78.1936 21.6497 74.9116C17.9778 71.6295 15.6459 67.108 15.1009 62.2133C14.5559 57.3186 15.836 52.395 18.696 48.3856C21.5561 44.3762 25.7949 41.563 30.6004 40.485C29.21 34.0004 30.4525 27.2292 34.0546 21.6607C37.6567 16.0923 43.3233 12.1829 49.8079 10.7925C56.2924 9.40209 63.0637 10.6446 68.6321 14.2467C74.2005 17.8488 78.11 23.5154 79.5004 30H80.0004C86.2001 29.9938 92.181 32.2914 96.782 36.4469C101.383 40.6023 104.276 46.3191 104.899 52.4875C105.522 58.6559 103.831 64.8357 100.154 69.8274C96.4768 74.819 91.0761 78.2663 85.0004 79.5M75.0004 65L60.0004 50M60.0004 50L45.0004 65M60.0004 50V110" stroke="#003A79" stroke-width="5" stroke-linecap="round" stroke-linejoin="round"/>
</svg>
