<svg width="120" height="120" viewBox="0 0 120 120" fill="none" xmlns="http://www.w3.org/2000/svg">
    <path d="M16.7127 38.8895C17.8434 36.1596 19.5008 33.6792 21.5901 31.5899C23.6795 29.5006 26.1598 27.8432 28.8897 26.7125C31.6195 25.5817 34.5454 24.9997 37.5001 24.9997C40.4549 24.9997 43.3807 25.5817 46.1106 26.7125C48.8404 27.8432 51.3208 29.5006 53.4101 31.5899L60.0001 38.1799L66.5901 31.5899C70.8097 27.3703 76.5327 24.9998 82.5001 24.9998C88.4675 24.9998 94.1905 27.3703 98.4101 31.5899C102.63 35.8095 105 41.5325 105 47.4999C105 53.4673 102.63 59.1903 98.4101 63.4099L60.0001 101.82L21.5901 63.4099C19.5008 61.3206 17.8434 58.8402 16.7127 56.1104C15.5819 53.3805 14.9999 50.4547 14.9999 47.4999C14.9999 44.5452 15.5819 41.6193 16.7127 38.8895Z" stroke="#003A79" stroke-width="5" stroke-linecap="round" stroke-linejoin="round"/>
</svg>
