<svg width="120" height="120" viewBox="0 0 120 120" fill="none" xmlns="http://www.w3.org/2000/svg">
    <path d="M75.8601 34.9999L42.9301 67.9299C41.975 68.8524 41.2132 69.9558 40.6891 71.1759C40.165 72.3959 39.8891 73.7081 39.8776 75.0359C39.8661 76.3637 40.1191 77.6805 40.6219 78.9094C41.1247 80.1384 41.8672 81.2549 42.8061 82.1939C43.7451 83.1328 44.8616 83.8753 46.0906 84.3781C47.3195 84.8809 48.6363 85.134 49.9641 85.1224C51.2919 85.1109 52.6041 84.835 53.8241 84.3109C55.0442 83.7868 56.1476 83.025 57.0701 82.0699L89.1401 49.1399C92.7833 45.3679 94.7992 40.3158 94.7536 35.0719C94.708 29.8279 92.6046 24.8117 88.8965 21.1035C85.1883 17.3954 80.1721 15.292 74.9281 15.2464C69.6842 15.2009 64.6321 17.2167 60.8601 20.8599L28.7851 53.7849C23.1585 59.4115 19.9976 67.0427 19.9976 74.9999C19.9976 82.9571 23.1585 90.5883 28.7851 96.2149C34.4117 101.841 42.0429 105.002 50.0001 105.002C57.9573 105.002 65.5885 101.841 71.2151 96.2149L102.5 64.9999" stroke="#003A79" stroke-width="5" stroke-linecap="round" stroke-linejoin="round"/>
</svg>
