<svg width="16" height="16" viewBox="0 0 16 16" fill="none" xmlns="http://www.w3.org/2000/svg">
<path d="M5.48533 6C5.85133 5.22333 6.83867 4.66667 8 4.66667C9.47333 4.66667 10.6667 5.562 10.6667 6.66667C10.6667 7.6 9.81467 8.38333 8.66267 8.60467C8.30133 8.674 8 8.96467 8 9.33333M8 11.3333H8.00667M14 8C14 8.78793 13.8448 9.56815 13.5433 10.2961C13.2417 11.0241 12.7998 11.6855 12.2426 12.2426C11.6855 12.7998 11.0241 13.2417 10.2961 13.5433C9.56815 13.8448 8.78793 14 8 14C7.21207 14 6.43185 13.8448 5.7039 13.5433C4.97595 13.2417 4.31451 12.7998 3.75736 12.2426C3.20021 11.6855 2.75825 11.0241 2.45672 10.2961C2.15519 9.56815 2 8.78793 2 8C2 6.4087 2.63214 4.88258 3.75736 3.75736C4.88258 2.63214 6.4087 2 8 2C9.5913 2 11.1174 2.63214 12.2426 3.75736C13.3679 4.88258 14 6.4087 14 8Z" stroke="#003A79" stroke-linecap="round" stroke-linejoin="round"/>
</svg>
