<svg width="36" height="36" viewBox="0 0 36 36" fill="none" xmlns="http://www.w3.org/2000/svg">
<path d="M12.5 18L16.1667 21.6667L23.5 14.3333M34.5 18C34.5 20.1668 34.0732 22.3124 33.244 24.3143C32.4148 26.3161 31.1994 28.1351 29.6673 29.6673C28.1351 31.1994 26.3161 32.4148 24.3143 33.244C22.3124 34.0732 20.1668 34.5 18 34.5C15.8332 34.5 13.6876 34.0732 11.6857 33.244C9.68385 32.4148 7.8649 31.1994 6.33274 29.6673C4.80057 28.1351 3.58519 26.3161 2.75599 24.3143C1.92678 22.3124 1.5 20.1668 1.5 18C1.5 13.6239 3.23839 9.42709 6.33274 6.33274C9.42709 3.23839 13.6239 1.5 18 1.5C22.3761 1.5 26.5729 3.23839 29.6673 6.33274C32.7616 9.42709 34.5 13.6239 34.5 18Z" stroke="#003A79" stroke-width="2" stroke-linecap="round" stroke-linejoin="round"/>
</svg>
