<svg width="120" height="120" viewBox="0 0 120 120" fill="none" xmlns="http://www.w3.org/2000/svg">
    <path d="M35.0003 80C30.0754 80.0055 25.3216 78.1937 21.6497 74.9116C17.9777 71.6295 15.6459 67.108 15.1009 62.2134C14.5558 57.3187 15.836 52.395 18.696 48.3856C21.556 44.3762 25.7948 41.563 30.6003 40.485C29.2099 34.0005 30.4524 27.2292 34.0545 21.6608C37.6566 16.0923 43.3233 12.1829 49.8078 10.7925C56.2924 9.40212 63.0636 10.6446 68.6321 14.2467C74.2005 17.8489 78.1099 23.5155 79.5003 30H80.0003C86.2001 29.9938 92.181 32.2914 96.782 36.4469C101.383 40.6023 104.276 46.3192 104.899 52.4875C105.522 58.6559 103.831 64.8358 100.154 69.8274C96.4767 74.819 91.0761 78.2663 85.0003 79.5M75.0003 65L60.0003 50M60.0003 50L45.0003 65M60.0003 50V110" stroke="#003A79" stroke-width="5" stroke-linecap="round" stroke-linejoin="round"/>
</svg>
