<svg width="16" height="16" viewBox="0 0 16 16" fill="none" xmlns="http://www.w3.org/2000/svg">
<path d="M9.88554 6.55229C10.3856 6.05219 10.6666 5.37391 10.6666 4.66667C10.6666 3.95942 10.3856 3.28115 9.88554 2.78105C9.38544 2.28095 8.70716 2 7.99992 2C7.29267 2 6.6144 2.28095 6.1143 2.78105C5.6142 3.28115 5.33325 3.95942 5.33325 4.66667C5.33325 5.37391 5.6142 6.05219 6.1143 6.55229C6.6144 7.05238 7.29267 7.33333 7.99992 7.33333C8.70716 7.33333 9.38544 7.05238 9.88554 6.55229Z" stroke="#003A79" stroke-linecap="round" stroke-linejoin="round"/>
<path d="M4.70009 10.7002C5.57526 9.825 6.76224 9.33333 7.99992 9.33333C9.2376 9.33333 10.4246 9.825 11.2998 10.7002C12.1749 11.5753 12.6666 12.7623 12.6666 14H3.33325C3.33325 12.7623 3.82492 11.5753 4.70009 10.7002Z" stroke="#003A79" stroke-linecap="round" stroke-linejoin="round"/>
</svg>
